<mxfile host="app.diagrams.net" agent="Mozilla/5.0 (Macintosh; Intel Mac OS X 10_15_7) AppleWebKit/605.1.15 (KHTML, like Gecko) Version/18.3 Safari/605.1.15" version="26.2.9">
  <diagram name="Page-1" id="9YGcP4kTieHBKAeo50qU">
    <mxGraphModel dx="1290" dy="1082" grid="1" gridSize="10" guides="1" tooltips="1" connect="1" arrows="1" fold="1" page="1" pageScale="1" pageWidth="1700" pageHeight="1100" math="0" shadow="0">
      <root>
        <mxCell id="0" />
        <mxCell id="1" parent="0" />
        <mxCell id="FAYgEQ3GZWzxIfLMmF-X-9" value="" style="edgeStyle=orthogonalEdgeStyle;rounded=0;orthogonalLoop=1;jettySize=auto;html=1;" parent="1" source="FAYgEQ3GZWzxIfLMmF-X-2" target="FAYgEQ3GZWzxIfLMmF-X-8" edge="1">
          <mxGeometry relative="1" as="geometry" />
        </mxCell>
        <mxCell id="FAYgEQ3GZWzxIfLMmF-X-2" value="User" style="shape=umlActor;verticalLabelPosition=bottom;verticalAlign=top;html=1;outlineConnect=0;" parent="1" vertex="1">
          <mxGeometry x="40" y="40" width="30" height="60" as="geometry" />
        </mxCell>
        <mxCell id="FAYgEQ3GZWzxIfLMmF-X-11" value="" style="edgeStyle=orthogonalEdgeStyle;rounded=0;orthogonalLoop=1;jettySize=auto;html=1;" parent="1" source="FAYgEQ3GZWzxIfLMmF-X-8" target="FAYgEQ3GZWzxIfLMmF-X-10" edge="1">
          <mxGeometry relative="1" as="geometry" />
        </mxCell>
        <mxCell id="FAYgEQ3GZWzxIfLMmF-X-8" value="&lt;div&gt;&lt;br&gt;&lt;/div&gt;&lt;div&gt;Clicks Sign Out&lt;/div&gt;" style="whiteSpace=wrap;html=1;verticalAlign=top;" parent="1" vertex="1">
          <mxGeometry x="120" y="40" width="120" height="60" as="geometry" />
        </mxCell>
        <mxCell id="FAYgEQ3GZWzxIfLMmF-X-10" value="&lt;div&gt;Remove &quot;kickStartRecordsCart&quot; item from local storage.&lt;br&gt;&lt;/div&gt;" style="shape=process;whiteSpace=wrap;html=1;backgroundOutline=1;verticalAlign=top;" parent="1" vertex="1">
          <mxGeometry x="300" y="40" width="170" height="60" as="geometry" />
        </mxCell>
        <mxCell id="FAYgEQ3GZWzxIfLMmF-X-12" value="" style="edgeStyle=orthogonalEdgeStyle;rounded=0;orthogonalLoop=1;jettySize=auto;html=1;" parent="1" source="FAYgEQ3GZWzxIfLMmF-X-13" target="FAYgEQ3GZWzxIfLMmF-X-15" edge="1">
          <mxGeometry relative="1" as="geometry" />
        </mxCell>
        <mxCell id="FAYgEQ3GZWzxIfLMmF-X-13" value="User" style="shape=umlActor;verticalLabelPosition=bottom;verticalAlign=top;html=1;outlineConnect=0;" parent="1" vertex="1">
          <mxGeometry x="40" y="140" width="30" height="60" as="geometry" />
        </mxCell>
        <mxCell id="FAYgEQ3GZWzxIfLMmF-X-18" value="" style="edgeStyle=orthogonalEdgeStyle;rounded=0;orthogonalLoop=1;jettySize=auto;html=1;" parent="1" source="FAYgEQ3GZWzxIfLMmF-X-15" target="FAYgEQ3GZWzxIfLMmF-X-17" edge="1">
          <mxGeometry relative="1" as="geometry" />
        </mxCell>
        <mxCell id="FAYgEQ3GZWzxIfLMmF-X-15" value="&lt;div&gt;&lt;br&gt;&lt;/div&gt;&lt;div&gt;Clicks Add To Cart&lt;br&gt;&lt;/div&gt;" style="whiteSpace=wrap;html=1;verticalAlign=top;" parent="1" vertex="1">
          <mxGeometry x="120" y="140" width="120" height="60" as="geometry" />
        </mxCell>
        <mxCell id="FAYgEQ3GZWzxIfLMmF-X-20" value="" style="edgeStyle=orthogonalEdgeStyle;rounded=0;orthogonalLoop=1;jettySize=auto;html=1;" parent="1" source="FAYgEQ3GZWzxIfLMmF-X-17" target="FAYgEQ3GZWzxIfLMmF-X-19" edge="1">
          <mxGeometry relative="1" as="geometry" />
        </mxCell>
        <mxCell id="FAYgEQ3GZWzxIfLMmF-X-21" value="No" style="edgeLabel;html=1;align=center;verticalAlign=middle;resizable=0;points=[];" parent="FAYgEQ3GZWzxIfLMmF-X-20" vertex="1" connectable="0">
          <mxGeometry x="0.2333" relative="1" as="geometry">
            <mxPoint x="-17" as="offset" />
          </mxGeometry>
        </mxCell>
        <mxCell id="FAYgEQ3GZWzxIfLMmF-X-26" value="" style="edgeStyle=orthogonalEdgeStyle;rounded=0;orthogonalLoop=1;jettySize=auto;html=1;" parent="1" source="FAYgEQ3GZWzxIfLMmF-X-17" target="FAYgEQ3GZWzxIfLMmF-X-25" edge="1">
          <mxGeometry relative="1" as="geometry" />
        </mxCell>
        <mxCell id="FAYgEQ3GZWzxIfLMmF-X-30" value="Yes" style="edgeLabel;html=1;align=center;verticalAlign=middle;resizable=0;points=[];" parent="FAYgEQ3GZWzxIfLMmF-X-26" vertex="1" connectable="0">
          <mxGeometry x="-0.225" relative="1" as="geometry">
            <mxPoint as="offset" />
          </mxGeometry>
        </mxCell>
        <mxCell id="FAYgEQ3GZWzxIfLMmF-X-17" value="&lt;div&gt;&lt;br&gt;&lt;/div&gt;&lt;div&gt;Is user&amp;nbsp;&lt;br&gt;&lt;/div&gt;&lt;div&gt;signed in?&lt;br&gt;&lt;/div&gt;" style="rhombus;whiteSpace=wrap;html=1;verticalAlign=top;" parent="1" vertex="1">
          <mxGeometry x="340" y="130" width="80" height="80" as="geometry" />
        </mxCell>
        <mxCell id="FAYgEQ3GZWzxIfLMmF-X-33" value="" style="edgeStyle=orthogonalEdgeStyle;rounded=0;orthogonalLoop=1;jettySize=auto;html=1;" parent="1" source="FAYgEQ3GZWzxIfLMmF-X-19" target="FAYgEQ3GZWzxIfLMmF-X-32" edge="1">
          <mxGeometry relative="1" as="geometry" />
        </mxCell>
        <mxCell id="FAYgEQ3GZWzxIfLMmF-X-19" value="Sign in user Anonymously. Add anonymous id and generate new cart id. Save to local storage" style="whiteSpace=wrap;html=1;verticalAlign=top;" parent="1" vertex="1">
          <mxGeometry x="480" y="140" width="200" height="60" as="geometry" />
        </mxCell>
        <mxCell id="FAYgEQ3GZWzxIfLMmF-X-47" value="" style="edgeStyle=orthogonalEdgeStyle;rounded=0;orthogonalLoop=1;jettySize=auto;html=1;" parent="1" source="FAYgEQ3GZWzxIfLMmF-X-25" target="FAYgEQ3GZWzxIfLMmF-X-46" edge="1">
          <mxGeometry relative="1" as="geometry" />
        </mxCell>
        <mxCell id="FAYgEQ3GZWzxIfLMmF-X-50" value="Yes" style="edgeLabel;html=1;align=center;verticalAlign=middle;resizable=0;points=[];" parent="FAYgEQ3GZWzxIfLMmF-X-47" vertex="1" connectable="0">
          <mxGeometry x="-0.125" y="-2" relative="1" as="geometry">
            <mxPoint as="offset" />
          </mxGeometry>
        </mxCell>
        <mxCell id="FAYgEQ3GZWzxIfLMmF-X-62" value="" style="edgeStyle=orthogonalEdgeStyle;rounded=0;orthogonalLoop=1;jettySize=auto;html=1;" parent="1" source="FAYgEQ3GZWzxIfLMmF-X-25" target="FAYgEQ3GZWzxIfLMmF-X-61" edge="1">
          <mxGeometry relative="1" as="geometry" />
        </mxCell>
        <mxCell id="FAYgEQ3GZWzxIfLMmF-X-63" value="No" style="edgeLabel;html=1;align=center;verticalAlign=middle;resizable=0;points=[];" parent="FAYgEQ3GZWzxIfLMmF-X-62" vertex="1" connectable="0">
          <mxGeometry x="-0.2571" y="1" relative="1" as="geometry">
            <mxPoint as="offset" />
          </mxGeometry>
        </mxCell>
        <mxCell id="FAYgEQ3GZWzxIfLMmF-X-25" value="&lt;div&gt;&lt;br&gt;&lt;/div&gt;&lt;div&gt;Is user anonymous?&lt;/div&gt;" style="rhombus;whiteSpace=wrap;html=1;verticalAlign=top;" parent="1" vertex="1">
          <mxGeometry x="340" y="290" width="80" height="80" as="geometry" />
        </mxCell>
        <mxCell id="FAYgEQ3GZWzxIfLMmF-X-35" value="" style="edgeStyle=orthogonalEdgeStyle;rounded=0;orthogonalLoop=1;jettySize=auto;html=1;" parent="1" source="FAYgEQ3GZWzxIfLMmF-X-32" target="FAYgEQ3GZWzxIfLMmF-X-34" edge="1">
          <mxGeometry relative="1" as="geometry" />
        </mxCell>
        <mxCell id="FAYgEQ3GZWzxIfLMmF-X-32" value="Insert/upsert anon user, cartId and item(s) into database." style="whiteSpace=wrap;html=1;verticalAlign=top;" parent="1" vertex="1">
          <mxGeometry x="720" y="140" width="120" height="60" as="geometry" />
        </mxCell>
        <mxCell id="FAYgEQ3GZWzxIfLMmF-X-34" value="&lt;div&gt;&lt;br&gt;&lt;/div&gt;Update UI to reflect cart count." style="whiteSpace=wrap;html=1;verticalAlign=top;" parent="1" vertex="1">
          <mxGeometry x="880" y="140" width="120" height="60" as="geometry" />
        </mxCell>
        <mxCell id="FAYgEQ3GZWzxIfLMmF-X-48" style="edgeStyle=orthogonalEdgeStyle;rounded=0;orthogonalLoop=1;jettySize=auto;html=1;entryX=0.433;entryY=0.983;entryDx=0;entryDy=0;entryPerimeter=0;" parent="1" source="FAYgEQ3GZWzxIfLMmF-X-46" target="FAYgEQ3GZWzxIfLMmF-X-32" edge="1">
          <mxGeometry relative="1" as="geometry">
            <mxPoint x="670" y="330" as="targetPoint" />
          </mxGeometry>
        </mxCell>
        <mxCell id="FAYgEQ3GZWzxIfLMmF-X-49" value="Yes" style="edgeLabel;html=1;align=center;verticalAlign=middle;resizable=0;points=[];" parent="FAYgEQ3GZWzxIfLMmF-X-48" vertex="1" connectable="0">
          <mxGeometry x="-0.0277" y="-1" relative="1" as="geometry">
            <mxPoint x="-87" y="-1" as="offset" />
          </mxGeometry>
        </mxCell>
        <mxCell id="FAYgEQ3GZWzxIfLMmF-X-54" value="" style="edgeStyle=orthogonalEdgeStyle;rounded=0;orthogonalLoop=1;jettySize=auto;html=1;" parent="1" source="FAYgEQ3GZWzxIfLMmF-X-46" target="FAYgEQ3GZWzxIfLMmF-X-53" edge="1">
          <mxGeometry relative="1" as="geometry" />
        </mxCell>
        <mxCell id="FAYgEQ3GZWzxIfLMmF-X-55" value="No" style="edgeLabel;html=1;align=center;verticalAlign=middle;resizable=0;points=[];" parent="FAYgEQ3GZWzxIfLMmF-X-54" vertex="1" connectable="0">
          <mxGeometry x="-0.3091" y="2" relative="1" as="geometry">
            <mxPoint as="offset" />
          </mxGeometry>
        </mxCell>
        <mxCell id="FAYgEQ3GZWzxIfLMmF-X-46" value="&lt;div&gt;&lt;br&gt;&lt;/div&gt;Does local storage user id match anon user?" style="rhombus;whiteSpace=wrap;html=1;verticalAlign=top;" parent="1" vertex="1">
          <mxGeometry x="500" y="290" width="80" height="80" as="geometry" />
        </mxCell>
        <mxCell id="FAYgEQ3GZWzxIfLMmF-X-57" style="edgeStyle=orthogonalEdgeStyle;rounded=0;orthogonalLoop=1;jettySize=auto;html=1;entryX=0.5;entryY=1;entryDx=0;entryDy=0;" parent="1" source="FAYgEQ3GZWzxIfLMmF-X-53" target="FAYgEQ3GZWzxIfLMmF-X-32" edge="1">
          <mxGeometry relative="1" as="geometry" />
        </mxCell>
        <mxCell id="FAYgEQ3GZWzxIfLMmF-X-53" value="Replace local storage with new anon user id and new cart id" style="whiteSpace=wrap;html=1;verticalAlign=top;" parent="1" vertex="1">
          <mxGeometry x="480" y="440" width="120" height="60" as="geometry" />
        </mxCell>
        <mxCell id="FAYgEQ3GZWzxIfLMmF-X-58" value="Note that the cart table in the database will have a maintenance routine that deletes carts for anonymous user ids after thirty days." style="whiteSpace=wrap;html=1;aspect=fixed;" parent="1" vertex="1">
          <mxGeometry x="1060" y="940" width="130" height="130" as="geometry" />
        </mxCell>
        <mxCell id="FAYgEQ3GZWzxIfLMmF-X-61" value="Add item to cart. &lt;i&gt;&amp;nbsp;See Cicks Sign In flow.&lt;/i&gt;" style="whiteSpace=wrap;html=1;verticalAlign=top;" parent="1" vertex="1">
          <mxGeometry x="320" y="440" width="120" height="60" as="geometry" />
        </mxCell>
        <mxCell id="NzhXmoMMTca9repQAxEL-1" value="" style="edgeStyle=orthogonalEdgeStyle;rounded=0;orthogonalLoop=1;jettySize=auto;html=1;" edge="1" parent="1" source="NzhXmoMMTca9repQAxEL-2" target="NzhXmoMMTca9repQAxEL-4">
          <mxGeometry relative="1" as="geometry" />
        </mxCell>
        <mxCell id="NzhXmoMMTca9repQAxEL-2" value="User" style="shape=umlActor;verticalLabelPosition=bottom;verticalAlign=top;html=1;outlineConnect=0;" vertex="1" parent="1">
          <mxGeometry x="40" y="540" width="30" height="60" as="geometry" />
        </mxCell>
        <mxCell id="NzhXmoMMTca9repQAxEL-7" value="" style="edgeStyle=orthogonalEdgeStyle;rounded=0;orthogonalLoop=1;jettySize=auto;html=1;" edge="1" parent="1" source="NzhXmoMMTca9repQAxEL-4" target="NzhXmoMMTca9repQAxEL-6">
          <mxGeometry relative="1" as="geometry" />
        </mxCell>
        <mxCell id="NzhXmoMMTca9repQAxEL-4" value="&lt;div&gt;&lt;br&gt;&lt;/div&gt;&lt;div&gt;Clicks Sign In&lt;/div&gt;" style="whiteSpace=wrap;html=1;verticalAlign=top;" vertex="1" parent="1">
          <mxGeometry x="120" y="540" width="120" height="60" as="geometry" />
        </mxCell>
        <mxCell id="NzhXmoMMTca9repQAxEL-12" value="" style="edgeStyle=orthogonalEdgeStyle;rounded=0;orthogonalLoop=1;jettySize=auto;html=1;" edge="1" parent="1" source="NzhXmoMMTca9repQAxEL-6" target="NzhXmoMMTca9repQAxEL-11">
          <mxGeometry relative="1" as="geometry" />
        </mxCell>
        <mxCell id="NzhXmoMMTca9repQAxEL-17" value="Yes" style="edgeLabel;html=1;align=center;verticalAlign=middle;resizable=0;points=[];" vertex="1" connectable="0" parent="NzhXmoMMTca9repQAxEL-12">
          <mxGeometry x="-0.175" y="-1" relative="1" as="geometry">
            <mxPoint as="offset" />
          </mxGeometry>
        </mxCell>
        <mxCell id="NzhXmoMMTca9repQAxEL-22" value="" style="edgeStyle=orthogonalEdgeStyle;rounded=0;orthogonalLoop=1;jettySize=auto;html=1;" edge="1" parent="1" source="NzhXmoMMTca9repQAxEL-6" target="NzhXmoMMTca9repQAxEL-21">
          <mxGeometry relative="1" as="geometry" />
        </mxCell>
        <mxCell id="NzhXmoMMTca9repQAxEL-25" value="No" style="edgeLabel;html=1;align=center;verticalAlign=middle;resizable=0;points=[];" vertex="1" connectable="0" parent="NzhXmoMMTca9repQAxEL-22">
          <mxGeometry x="-0.48" y="2" relative="1" as="geometry">
            <mxPoint as="offset" />
          </mxGeometry>
        </mxCell>
        <mxCell id="NzhXmoMMTca9repQAxEL-6" value="Existing anon user id and items in local storage cart?" style="rhombus;whiteSpace=wrap;html=1;verticalAlign=top;" vertex="1" parent="1">
          <mxGeometry x="340" y="530" width="80" height="80" as="geometry" />
        </mxCell>
        <mxCell id="NzhXmoMMTca9repQAxEL-14" value="" style="edgeStyle=orthogonalEdgeStyle;rounded=0;orthogonalLoop=1;jettySize=auto;html=1;" edge="1" parent="1" source="NzhXmoMMTca9repQAxEL-11" target="NzhXmoMMTca9repQAxEL-13">
          <mxGeometry relative="1" as="geometry" />
        </mxCell>
        <mxCell id="NzhXmoMMTca9repQAxEL-18" value="Yes" style="edgeLabel;html=1;align=center;verticalAlign=middle;resizable=0;points=[];" vertex="1" connectable="0" parent="NzhXmoMMTca9repQAxEL-14">
          <mxGeometry x="-0.2" y="-2" relative="1" as="geometry">
            <mxPoint as="offset" />
          </mxGeometry>
        </mxCell>
        <mxCell id="NzhXmoMMTca9repQAxEL-11" value="&lt;div&gt;Signed&amp;nbsp;&lt;br&gt;&lt;/div&gt;&lt;div&gt;in user has items in db cart?&lt;/div&gt;" style="rhombus;whiteSpace=wrap;html=1;verticalAlign=top;" vertex="1" parent="1">
          <mxGeometry x="500" y="530" width="80" height="80" as="geometry" />
        </mxCell>
        <mxCell id="NzhXmoMMTca9repQAxEL-16" value="" style="edgeStyle=orthogonalEdgeStyle;rounded=0;orthogonalLoop=1;jettySize=auto;html=1;" edge="1" parent="1" source="NzhXmoMMTca9repQAxEL-13" target="NzhXmoMMTca9repQAxEL-15">
          <mxGeometry relative="1" as="geometry" />
        </mxCell>
        <mxCell id="NzhXmoMMTca9repQAxEL-13" value="merge items assigned to anon user with existing cart" style="whiteSpace=wrap;html=1;verticalAlign=top;" vertex="1" parent="1">
          <mxGeometry x="640" y="540" width="120" height="60" as="geometry" />
        </mxCell>
        <mxCell id="NzhXmoMMTca9repQAxEL-20" value="" style="edgeStyle=orthogonalEdgeStyle;rounded=0;orthogonalLoop=1;jettySize=auto;html=1;" edge="1" parent="1" source="NzhXmoMMTca9repQAxEL-15" target="NzhXmoMMTca9repQAxEL-19">
          <mxGeometry relative="1" as="geometry" />
        </mxCell>
        <mxCell id="NzhXmoMMTca9repQAxEL-15" value="Replace local storage with signed in user and cart id" style="whiteSpace=wrap;html=1;verticalAlign=top;" vertex="1" parent="1">
          <mxGeometry x="800" y="540" width="120" height="60" as="geometry" />
        </mxCell>
        <mxCell id="NzhXmoMMTca9repQAxEL-19" value="&lt;div&gt;&lt;br&gt;&lt;/div&gt;&lt;div&gt;Update UI&lt;/div&gt;" style="whiteSpace=wrap;html=1;verticalAlign=top;" vertex="1" parent="1">
          <mxGeometry x="960" y="540" width="120" height="60" as="geometry" />
        </mxCell>
        <mxCell id="NzhXmoMMTca9repQAxEL-24" value="" style="edgeStyle=orthogonalEdgeStyle;rounded=0;orthogonalLoop=1;jettySize=auto;html=1;" edge="1" parent="1" source="NzhXmoMMTca9repQAxEL-21" target="NzhXmoMMTca9repQAxEL-23">
          <mxGeometry relative="1" as="geometry" />
        </mxCell>
        <mxCell id="NzhXmoMMTca9repQAxEL-21" value="&lt;div&gt;query db for existing cart for signed in user&lt;br&gt;&lt;/div&gt;" style="whiteSpace=wrap;html=1;verticalAlign=middle;" vertex="1" parent="1">
          <mxGeometry x="320" y="660" width="120" height="60" as="geometry" />
        </mxCell>
        <mxCell id="NzhXmoMMTca9repQAxEL-27" value="" style="edgeStyle=orthogonalEdgeStyle;rounded=0;orthogonalLoop=1;jettySize=auto;html=1;" edge="1" parent="1" source="NzhXmoMMTca9repQAxEL-23" target="NzhXmoMMTca9repQAxEL-26">
          <mxGeometry relative="1" as="geometry" />
        </mxCell>
        <mxCell id="NzhXmoMMTca9repQAxEL-28" value="Yes" style="edgeLabel;html=1;align=center;verticalAlign=middle;resizable=0;points=[];" vertex="1" connectable="0" parent="NzhXmoMMTca9repQAxEL-27">
          <mxGeometry x="-0.1333" y="1" relative="1" as="geometry">
            <mxPoint as="offset" />
          </mxGeometry>
        </mxCell>
        <mxCell id="NzhXmoMMTca9repQAxEL-30" value="No" style="edgeStyle=orthogonalEdgeStyle;rounded=0;orthogonalLoop=1;jettySize=auto;html=1;" edge="1" parent="1" source="NzhXmoMMTca9repQAxEL-23" target="NzhXmoMMTca9repQAxEL-29">
          <mxGeometry relative="1" as="geometry">
            <Array as="points">
              <mxPoint x="440" y="800" />
              <mxPoint x="440" y="800" />
            </Array>
          </mxGeometry>
        </mxCell>
        <mxCell id="NzhXmoMMTca9repQAxEL-23" value="CartId assigned to user exists?" style="rhombus;whiteSpace=wrap;html=1;" vertex="1" parent="1">
          <mxGeometry x="340" y="760" width="80" height="80" as="geometry" />
        </mxCell>
        <mxCell id="NzhXmoMMTca9repQAxEL-26" value="Update local storage with cart/user id and update UI" style="whiteSpace=wrap;html=1;" vertex="1" parent="1">
          <mxGeometry x="320" y="930" width="120" height="60" as="geometry" />
        </mxCell>
        <mxCell id="NzhXmoMMTca9repQAxEL-29" value="Create new cart id, update local storage with user and cart id." style="whiteSpace=wrap;html=1;" vertex="1" parent="1">
          <mxGeometry x="480" y="770" width="120" height="60" as="geometry" />
        </mxCell>
      </root>
    </mxGraphModel>
  </diagram>
</mxfile>
